#!OML:ASF H:\BabyWalks\Project 1\Capture day 1\Session 1\baby.ASF
:FULLY-SPECIFIED
:DEGREES
617
root -9.64929 17.3413 0.44727 479.501 -79.1881 -488.273
lowerback 13.4628 3.04512 2.37283
upperback 5.92946 4.02287 0.771783
thorax -1.18712 1.90383 -1.09179
lowerneck -6.39505 0.97192 7.62175
upperneck 22.2827 0.334691 -2.91126
head 7.95587 0.314743 -2.25327
rclavicle 3.61788e-014 2.38542e-015
rhumerus -38.0942 5.65446 -78.9513
rradius 53.5311
rwrist 7.78455
rhand -9.19624 -21.1561
rfingers 7.12502
rthumb 16.7575 -50.4528
lclavicle 3.61788e-014 2.38542e-015
lhumerus -43.2424 -2.84906 75.995
lradius 65.8788
lwrist 4.43391
lhand -5.98624 8.45487
lfingers 7.12502
lthumb 19.8456 37.4616
rfemur 3.46471 1.51847 23.7095
rtibia 26.0398
rfoot -17.742 -11.1141
rtoes -1.03669
lfemur -0.3425 8.75473 -7.42315
ltibia 41.5968
lfoot -27.706 9.41026
ltoes -7.32261
618
root -9.67708 17.3235 0.41254 480.092 -78.4477 -489.243
lowerback 13.2827 3.06665 2.70926
upperback 5.92236 4.09187 0.974564
thorax -1.08557 1.94254 -1.06832
lowerneck -6.31719 1.0651 7.82917
upperneck 22.4114 0.404865 -2.81336
head 7.99216 0.371672 -2.25173
rclavicle -2.14687e-014 -1.90833e-014
rhumerus -37.9996 6.545 -79.4561
rradius 54.2437
rwrist 7.53602
rhand -8.9865 -20.7927
rfingers 7.12502
rthumb 16.9594 -50.0723
lclavicle -2.14687e-014 -1.90833e-014
lhumerus -43.5594 -2.85653 76.1009
lradius 66.3032
lwrist 4.36026
lhand -5.89709 8.09149
lfingers 7.12502
lthumb 19.9313 37.0894
rfemur 4.06354 1.29218 24.2468
rtibia 25.7212
rfoot -17.6714 -10.4172
rtoes -0.977637
lfemur 0.211484 8.6466 -6.59453
ltibia 41.9247
lfoot -27.9654 9.35633
ltoes -7.71684
619
root -9.70731 17.3049 0.379466 480.513 -77.7786 -490.065
lowerback 13.0897 3.07308 3.00237
upperback 5.92249 4.13282 1.16638
thorax -0.972568 1.96699 -1.02707
lowerneck -6.2597 1.16275 8.00696
upperneck 22.5958 0.472784 -2.67849
head 8.05103 0.42867 -2.23386
rclavicle -4.29375e-014 8.74653e-015
rhumerus -37.9311 7.41512 -79.9338
rradius 54.9816
rwrist 7.30752
rhand -8.76927 -20.4098
rfingers 7.12502
rthumb 17.1685 -49.6714
lclavicle -4.29375e-014 8.74653e-015
lhumerus -43.8596 -2.93901 76.2346
lradius 66.7211
lwrist 4.2993
lhand -5.76372 7.70775
lfingers 7.12502
lthumb 20.0595 36.6923
rfemur 4.69779 1.06137 24.7138
rtibia 25.429
rfoot -17.6474 -9.75096
rtoes -0.912976
lfemur 0.839105 8.43272 -5.88234
ltibia 42.1485
lfoot -28.2287 9.42018
ltoes -7.99983
620
root -9.73977 17.2856 0.348537 480.812 -77.1836 -490.782
lowerback 12.8807 3.06363 3.26082
upperback 5.92652 4.14602 1.34426
thorax -0.849235 1.9776 -0.976163
lowerneck -6.19241 1.2524 8.17749
upperneck 22.8069 0.528431 -2.5417
head 8.11671 0.479472 -2.21548
rclavicle 1.78906e-014 3.18055e-015
rhumerus -37.8952 8.25214 -80.3825
rradius 55.7482
rwrist 7.10116
rhand -8.59986 -19.9938
rfingers 7.12502
rthumb 17.3316 -49.2411
lclavicle 1.78906e-014 3.18055e-015
lhumerus -44.1448 -3.10466 76.3982
lradius 67.1355
lwrist 4.25163
lhand -5.59097 7.3071
lfingers 7.12502
lthumb 20.2255 36.2741
rfemur 5.35156 0.81973 25.1032
rtibia 25.1782
rfoot -17.6729 -9.10657
rtoes -0.842662
lfemur 1.53318 8.11619 -5.29703
ltibia 42.2659
lfoot -28.497 9.60263
ltoes -8.16448
621
root -9.7743 17.2658 0.319756 481.061 -76.6765 -491.457
lowerback 12.6451 3.03985 3.46707
upperback 5.93267 4.13161 1.50542
thorax -0.712977 1.97437 -0.908553
lowerneck -6.12956 1.34048 8.31882
upperneck 23.0516 0.578783 -2.38587
head 8.19438 0.527306 -2.18663
rclavicle -1.55052e-014 9.54166e-015
rhumerus -37.8925 9.05318 -80.8008
rradius 56.5476
rwrist 6.90511
rhand -8.43316 -19.5531
rfingers 7.12502
rthumb 17.492 -48.7861
lclavicle -1.55052e-014 9.54166e-015
lhumerus -44.4097 -3.35142 76.5922
lradius 67.5485
lwrist 4.21526
lhand -5.36245 6.87383
lfingers 7.12502
lthumb 20.4451 35.8174
rfemur 6.00536 0.568731 25.3985
rtibia 24.9781
rfoot -17.7454 -8.48678
rtoes -0.774026
lfemur 2.2773 7.70964 -4.86051
ltibia 42.2803
lfoot -28.7656 9.90105
ltoes -8.20731
622
root -9.81072 17.246 0.293499 481.281 -76.2327 -492.099
lowerback 12.3751 3.00576 3.65379
upperback 5.93884 4.09858 1.65257
thorax -0.559242 1.96242 -0.840606
lowerneck -6.06125 1.42141 8.44039
upperneck 23.3115 0.620492 -2.22995
head 8.27588 0.569573 -2.15524
rclavicle -1.07344e-014 -1.03368e-014
rhumerus -37.9274 9.80537 -81.1859
rradius 57.3846
rwrist 6.71946
rhand -8.32696 -19.0948
rfingers 7.12502
rthumb 17.5942 -48.3187
lclavicle -1.07344e-014 -1.03368e-014
lhumerus -44.6538 -3.67931 76.8177
lradius 67.9706
lwrist 4.18323
lhand -5.03299 6.43027
lfingers 7.12502
lthumb 20.7617 35.3396
rfemur 6.64408 0.322154 25.6243
rtibia 24.8287
rfoot -17.852 -7.89656
rtoes -0.71745
lfemur 3.05751 7.23336 -4.54927
ltibia 42.2049
lfoot -29.0363 10.3034
ltoes -8.12348
623
root -9.84892 17.2261 0.269852 481.459 -75.8411 -492.689
lowerback 12.0641 2.9597 3.83673
upperback 5.94337 4.04621 1.78857
thorax -0.385097 1.94171 -0.777944
lowerneck -5.98235 1.49709 8.54964
upperneck 23.5785 0.659084 -2.08745
head 8.35778 0.608189 -2.12653
rclavicle -1.59028e-015 -6.36111e-015
rhumerus -37.9981 10.5124 -81.5395
rradius 58.2607
rwrist 6.52647
rhand -8.22405 -18.6497
rfingers 7.12502
rthumb 17.6932 -47.8647
lclavicle -1.59028e-015 -6.36111e-015
lhumerus -44.878 -4.08393 77.072
lradius 68.4114
lwrist 4.16433
lhand -4.61946 5.96787
lfingers 7.12502
lthumb 21.159 34.8332
rfemur 7.25899 0.0696843 25.7933
rtibia 24.7261
rfoot -17.9829 -7.33025
rtoes -0.671456
lfemur 3.85807 6.7095 -4.34312
ltibia 42.054
lfoot -29.3123 10.796
ltoes -7.90738
624
root -9.8883 17.2064 0.248959 481.583 -75.4735 -493.201
lowerback 11.7101 2.90424 4.048
upperback 5.9397 3.98127 1.91878
thorax -0.193987 1.91618 -0.734016
lowerneck -5.89512 1.56497 8.65011
upperneck 23.849 0.691766 -1.96279
head 8.43911 0.64171 -2.10282
rclavicle -4.33351e-014 -1.51076e-014
rhumerus -38.1073 11.1665 -81.8619
rradius 59.1781
rwrist 6.31534
rhand -8.15482 -18.2216
rfingers 7.12502
rthumb 17.7599 -47.4305
lclavicle -4.33351e-014 -1.51076e-014
lhumerus -45.0753 -4.55815 77.348
lradius 68.8726
lwrist 4.13504
lhand -4.10383 5.48338
lfingers 7.12502
lthumb 21.6543 34.2925
rfemur 7.83705 -0.176668 25.9407
rtibia 24.6553
rfoot -18.118 -6.79613
rtoes -0.639982
lfemur 4.65484 6.16927 -4.20268
ltibia 41.8498
lfoot -29.5841 11.3684
ltoes -7.59422
625
root -9.92896 17.1873 0.230819 481.655 -75.1218 -493.63
lowerback 11.3097 2.84258 4.30058
upperback 5.92657 3.90842 2.04409
thorax 0.0158568 1.88851 -0.715633
lowerneck -5.79294 1.62162 8.74786
upperneck 24.1093 0.716158 -1.86306
head 8.51386 0.668752 -2.08762
rclavicle -2.39536e-014 -5.725e-014
rhumerus -38.2559 11.7593 -82.1526
rradius 60.136
rwrist 6.07709
rhand -8.06156 -17.8455
rfingers 7.12502
rthumb 17.8496 -47.0464
lclavicle -2.39536e-014 -5.725e-014
lhumerus -45.2376 -5.09877 77.6418
lradius 69.3539
lwrist 4.08625
lhand -3.49666 4.97548
lfingers 7.12502
lthumb 22.2372 33.7162
rfemur 8.37908 -0.421009 26.0748
rtibia 24.602
rfoot -18.2489 -6.28895
rtoes -0.604008
lfemur 5.43501 5.63218 -4.1109
ltibia 41.6113
lfoot -29.8499 12.01
ltoes -7.20301
626
root -9.97046 17.1688 0.214943 481.66 -74.7492 -493.961
lowerback 10.8702 2.77702 4.61635
upperback 5.90115 3.83198 2.17559
thorax 0.238447 1.86097 -0.724549
lowerneck -5.66066 1.67495 8.83611
upperneck 24.3459 0.743435 -1.77518
head 8.57515 0.694959 -2.07424
rclavicle 6.55989e-014 3.18055e-014
rhumerus -38.4386 12.3093 -82.4157
rradius 61.1292
rwrist 5.7965
rhand -7.98621 -17.5267
rfingers 7.12502
rthumb 17.9221 -46.7209
lclavicle 6.55989e-014 3.18055e-014
lhumerus -45.3695 -5.69058 77.9434
lradius 69.862
lwrist 4.00972
lhand -2.8168 4.45774
lfingers 7.12502
lthumb 22.8898 33.1192
rfemur 8.88622 -0.626962 26.2476
rtibia 24.5531
rfoot -18.3629 -5.83915
rtoes -0.569072
lfemur 6.19002 5.13105 -4.01319
ltibia 41.3582
lfoot -30.1084 12.7003
ltoes -6.75385
627
root -10.0124 17.1511 0.201772 481.603 -74.3596 -494.194
lowerback 10.4003 2.70896 5.00333
upperback 5.86201 3.75351 2.31044
thorax 0.468546 1.83452 -0.768812
lowerneck -5.51284 1.72414 8.90691
upperneck 24.5666 0.771807 -1.69635
head 8.62802 0.719195 -2.06066
rclavicle -1.90336e-014 1.98785e-014
rhumerus -38.6533 12.811 -82.6502
rradius 62.1531
rwrist 5.4651
rhand -7.87336 -17.2749
rfingers 7.12502
rthumb 18.0307 -46.4592
lclavicle -1.90336e-014 1.98785e-014
lhumerus -45.4631 -6.33128 78.251
lradius 70.3907
lwrist 3.90262
lhand -2.09171 3.92607
lfingers 7.12502
lthumb 23.5854 32.4997
rfemur 9.35877 -0.807589 26.4529
rtibia 24.4999
rfoot -18.4546 -5.43885
rtoes -0.543376
lfemur 6.909 4.67564 -3.90565
ltibia 41.1035
lfoot -30.3501 13.4269
ltoes -6.28093
